<svg xmlns="http://www.w3.org/2000/svg" viewBox="0 0 100 100">
  <defs>
    <linearGradient id="grad" x1="0%" y1="0%" x2="100%" y2="100%">
      <stop offset="0%" style="stop-color:#6366f1;stop-opacity:1" />
      <stop offset="100%" style="stop-color:#8b5cf6;stop-opacity:1" />
    </linearGradient>
  </defs>
  <!-- Brain icon -->
  <circle cx="50" cy="50" r="45" fill="url(#grad)"/>
  <path d="M 35 40 Q 30 35, 35 30 Q 40 25, 45 30 Q 50 25, 55 30 Q 60 25, 65 30 Q 70 35, 65 40" 
        fill="white" opacity="0.9"/>
  <path d="M 35 55 Q 30 50, 35 45 Q 40 40, 45 45 Q 50 40, 55 45 Q 60 40, 65 45 Q 70 50, 65 55" 
        fill="white" opacity="0.9"/>
  <path d="M 35 70 Q 30 65, 35 60 Q 40 55, 45 60 Q 50 55, 55 60 Q 60 55, 65 60 Q 70 65, 65 70" 
        fill="white" opacity="0.9"/>
  <circle cx="42" cy="38" r="3" fill="white"/>
  <circle cx="58" cy="38" r="3" fill="white"/>
</svg>